<?xml version="1.0" encoding="UTF-8"?>
<svg id="Layer_1" xmlns="http://www.w3.org/2000/svg" version="1.1" viewBox="0 0 100 100">
  <!-- Generator: Adobe Illustrator 29.2.1, SVG Export Plug-In . SVG Version: 2.1.0 Build 116)  -->
  <defs>
    <style>
      .st0 {
        fill: lime;
      }
    </style>
  </defs>
  <g>
    <path class="st0" d="M45.5,41.7c1.1-.1,2.2-.4,3.1-.8,1-.4,1.7-1,2.3-1.8s.9-2,.9-3.4-.3-2.4-.8-3.2c-.5-.8-1.3-1.4-2.1-1.8s-1.9-.7-2.9-.8c-1.1-.1-2.1-.2-3.1-.2h-6.9v12.1h6.2c1.1,0,2.3,0,3.4-.2h0ZM40.3,34.2h2.4c.8,0,1.7,0,2.6.2.6,0,1.2.2,1.6.4.1,0,.2.1.3.2,0,0,0,.3,0,.7s0,.8,0,.9c0,.1-.2.2-.4.3-.5.2-1.1.4-1.8.4-1,0-2,.1-3,.1h-1.7v-3.2h0Z"/>
    <path class="st0" d="M44.8,1.5c-11.9,0-22.7,4.8-30.6,12.5h6.9c6.8-5.1,15.1-8,23.8-8,21.7,0,39.3,17.6,39.3,39.3s-.2,4.5-.6,6.7h4.5c.3-2.2.5-4.4.5-6.7,0-24.2-19.6-43.8-43.8-43.8Z"/>
    <path class="st0" d="M5.4,45.3c0-2.2.2-4.5.6-6.6H1.5c-.3,2.2-.5,4.4-.5,6.6,0,14.5,7.1,27.4,18,35.4v-5.7c-8.5-7.3-13.5-18.1-13.5-29.7Z"/>
    <path class="st0" d="M27.9,29.7H3.8c-.6,1.4-1,2.9-1.4,4.5h21v44.2h0v5.2c1.4.8,2.9,1.5,4.5,2.2v-18h0V29.7Z"/>
    <path class="st0" d="M74,56.4h-8.8l2.7,4.5h17.8c.6-1.4,1-2.9,1.4-4.5h-13.1Z"/>
    <path class="st0" d="M49.7,23.5c2,.4,3.8,1.1,5.3,2.1,1.6,1,2.8,2.3,3.7,3.9.9,1.6,1.4,3.7,1.4,6.3s-.9,6-2.7,8.2c-1.8,2.2-4.4,3.5-7.7,4l5.9,9.8.3.5,1.6,2.7,4.1,6.8h-2.2v4.5h6.2l1.5-3.9-.3-.5-4.1-6.8-2.7-4.5-.6-1-3-5c1.7-.9,3.2-2.1,4.4-3.7,2.5-3,3.7-6.7,3.7-11s-.7-6.1-2-8.5c-1.3-2.3-3.1-4.2-5.3-5.5-2-1.2-4.3-2.1-6.8-2.6-2.3-.5-4.7-.7-7.1-.7H10.2c-1.1,1.4-2.1,2.9-3,4.5h36.3c2.1,0,4.2.2,6.2.6Z"/>
    <path class="st0" d="M57.7,82.4c.4.3.7.7,1,1.2.5.9.8,1.8.8,2.8v.2c.2,0,.4-.2.6-.2l2.3-5.9c-1.5.8-3.1,1.4-4.7,2Z"/>
    <g>
      <path class="st0" d="M36.2,84.1h-.3v4.1c1.5.3,2.9.5,4.5.7v-2.5l-4.1-2.2h0Z"/>
      <polygon class="st0" points="52 67.7 41.7 48.7 35.8 48.7 35.8 77.2 36.4 77.2 40.3 75.2 40.3 55.5 48.7 70.9 54.8 67.7 52 67.7"/>
    </g>
  </g>
  <g>
    <path class="st0" d="M55.5,71.8v3.4c0,.3,0,.5-.2.7-.1.2-.3.4-.6.5l-7,3.6c-.6.3-1.3.5-2,.7.7.2,1.4.4,2,.7l7,3.6c.3.1.5.3.6.5.1.2.2.5.2.7v3.4l-15.3-8v-1.9l15.3-8M57.5,68.5l-2.9,1.5-15.3,8-1.1.6v4.4l1.1.6,15.3,8,2.9,1.5v-6.7c0-.6-.2-1.2-.5-1.7-.3-.6-.8-1-1.5-1.3l-4.9-2.5,4.9-2.5c.6-.3,1.1-.8,1.4-1.3.3-.5.5-1.1.5-1.7v-6.7h0Z"/>
    <path class="st0" d="M76.5,65.1l-11.2,28.7c-.2.6-.6,1-1.1,1.3-.5.3-1,.4-1.5.4h-2l11.3-28.8c.2-.5.5-1,.9-1.2.4-.3.9-.4,1.5-.4h2M79.4,63.1h-5c-1,0-1.9.3-2.6.8-.8.5-1.3,1.3-1.7,2.2l-11.3,28.8-1.1,2.7h5c.9,0,1.7-.2,2.5-.7.9-.5,1.5-1.3,1.9-2.3l11.2-28.7,1.1-2.7h0Z"/>
    <path class="st0" d="M81.8,71.8l15.3,8v1.9l-15.3,8v-3.4c0-.3,0-.5.2-.7.1-.2.3-.4.6-.5l7-3.6c.6-.3,1.3-.5,2-.7-.7-.2-1.4-.4-2-.7l-7-3.6c-.3-.2-.5-.3-.6-.5-.1-.2-.2-.4-.2-.7v-3.4M79.8,68.5v6.7c0,.6.2,1.2.5,1.7.3.5.8,1,1.4,1.3l4.9,2.5-4.9,2.5c-.6.3-1.1.8-1.5,1.3-.3.5-.5,1.1-.5,1.7v6.7l2.9-1.5,15.3-8,1.1-.6v-4.4l-1.1-.6-15.3-8-2.9-1.5h0Z"/>
  </g>
</svg>