<?xml version="1.0" encoding="UTF-8"?>
<svg id="Layer_1" data-name="Layer 1" xmlns="http://www.w3.org/2000/svg" viewBox="0 0 419.65 125.11">
  <defs>
    <style>
      .cls-1 {
        fill: #00a5b5;
      }
    </style>
  </defs>
  <g>
    <path class="cls-1" d="M153.48,49.69h6.01v21.38c0,2.67-.55,4.65-1.65,5.94-1.1,1.29-2.76,1.93-4.99,1.93-1.5,0-2.87-.36-4.13-1.07-1.26-.72-2.35-1.76-3.27-3.13l-1.48,1.62c.95,1.5,2.22,2.66,3.79,3.51,1.58.84,3.27,1.26,5.08,1.26,2.99,0,5.25-.84,6.78-2.53,1.53-1.69,2.29-4.2,2.29-7.54v-23.57h-8.44v2.19Z"/>
    <path class="cls-1" d="M178.24,55.8c-1.91,0-3.74.31-5.49.93-1.75.62-3.24,1.49-4.49,2.6l1.19,1.72c1.05-.95,2.33-1.72,3.84-2.29,1.51-.57,3.09-.86,4.75-.86,2.42,0,4.25.6,5.51,1.81,1.26,1.21,1.89,2.97,1.89,5.3v2h-8.54c-3.25,0-5.61.64-7.09,1.93-1.48,1.29-2.22,2.97-2.22,5.04s.8,3.85,2.41,5.15c1.61,1.3,3.79,1.96,6.56,1.96,2.13,0,3.96-.41,5.49-1.22,1.53-.81,2.69-1.95,3.48-3.41v4.44h2.29v-15.8c0-3.05-.83-5.37-2.48-6.94-1.65-1.57-4.02-2.36-7.11-2.36ZM185.44,73.56c-.73,1.81-1.82,3.2-3.27,4.15-1.45.95-3.21,1.43-5.27,1.43-2.19,0-3.9-.47-5.11-1.41-1.21-.94-1.81-2.22-1.81-3.84s.55-2.78,1.65-3.68c1.1-.89,2.87-1.34,5.32-1.34h8.49v4.68Z"/>
    <path class="cls-1" d="M199.69,59.26c1.54-.88,3.28-1.31,5.23-1.31,1.59,0,3.05.31,4.37.93,1.32.62,2.43,1.55,3.32,2.79l1.77-1.29c-1.02-1.5-2.35-2.63-3.98-3.41-1.64-.78-3.46-1.17-5.46-1.17-2.42,0-4.58.53-6.49,1.6-1.91,1.07-3.4,2.56-4.49,4.49-1.08,1.92-1.62,4.11-1.62,6.56s.54,4.59,1.62,6.51c1.08,1.92,2.58,3.43,4.49,4.51,1.91,1.08,4.07,1.62,6.49,1.62,2,0,3.83-.39,5.46-1.17,1.64-.78,2.97-1.92,3.98-3.41l-1.77-1.29c-.89,1.24-2,2.17-3.32,2.79-1.32.62-2.78.93-4.37.93-1.94,0-3.68-.44-5.23-1.31-1.54-.88-2.75-2.11-3.63-3.7-.88-1.59-1.31-3.42-1.31-5.49s.44-3.9,1.31-5.49c.87-1.59,2.08-2.82,3.63-3.7Z"/>
    <path class="cls-1" d="M234.53,57.43c-1.89-1.08-4.02-1.62-6.37-1.62s-4.48.54-6.37,1.62c-1.89,1.08-3.38,2.58-4.46,4.51-1.08,1.93-1.62,4.1-1.62,6.51s.54,4.59,1.62,6.51c1.08,1.92,2.57,3.43,4.46,4.51,1.89,1.08,4.02,1.62,6.37,1.62s4.48-.54,6.37-1.62c1.89-1.08,3.38-2.58,4.46-4.51,1.08-1.92,1.62-4.1,1.62-6.51s-.54-4.59-1.62-6.51c-1.08-1.92-2.57-3.43-4.46-4.51ZM236.86,73.89c-.88,1.59-2.07,2.83-3.58,3.72-1.51.89-3.22,1.34-5.13,1.34s-3.62-.45-5.13-1.34c-1.51-.89-2.7-2.13-3.58-3.72-.88-1.59-1.31-3.4-1.31-5.44s.44-3.85,1.31-5.44c.87-1.59,2.07-2.83,3.58-3.72,1.51-.89,3.22-1.34,5.13-1.34s3.62.45,5.13,1.34c1.51.89,2.7,2.13,3.58,3.72.87,1.59,1.31,3.4,1.31,5.44s-.44,3.85-1.31,5.44Z"/>
    <path class="cls-1" d="M264.14,57.4c-1.88-1.07-3.98-1.6-6.3-1.6-2.2,0-4.18.52-5.97,1.55-1.78,1.03-3.17,2.47-4.15,4.32v-16.18h-2.39v35.41h2.29v-5.87c.99,1.91,2.38,3.4,4.18,4.46,1.8,1.07,3.81,1.6,6.04,1.6s4.42-.54,6.3-1.62c1.88-1.08,3.35-2.58,4.41-4.49,1.07-1.91,1.6-4.09,1.6-6.54s-.53-4.64-1.6-6.56c-1.07-1.92-2.54-3.42-4.41-4.49ZM266.45,73.89c-.88,1.59-2.08,2.83-3.6,3.72-1.53.89-3.25,1.34-5.15,1.34s-3.62-.45-5.13-1.34c-1.51-.89-2.7-2.13-3.58-3.72-.88-1.59-1.31-3.4-1.31-5.44s.44-3.85,1.31-5.44c.87-1.59,2.07-2.83,3.58-3.72,1.51-.89,3.22-1.34,5.13-1.34s3.63.45,5.15,1.34c1.53.89,2.73,2.13,3.6,3.72.88,1.59,1.31,3.4,1.31,5.44s-.44,3.85-1.31,5.44Z"/>
    <path class="cls-1" d="M312.13,55.37c-2.04,0-3.96.28-5.77.84-1.81.56-3.37,1.36-4.68,2.41l1.91,3.44c.99-.83,2.19-1.49,3.63-1.98,1.43-.49,2.89-.74,4.39-.74,2.23,0,3.91.52,5.06,1.57,1.15,1.05,1.72,2.56,1.72,4.53v.91h-7.25c-3.53,0-6.11.68-7.73,2.03-1.62,1.35-2.43,3.14-2.43,5.37s.85,4.02,2.55,5.39c1.7,1.37,3.97,2.05,6.8,2.05,1.94,0,3.62-.31,5.03-.93,1.41-.62,2.5-1.52,3.27-2.7v3.34h4.34v-15.27c0-3.4-.93-5.97-2.79-7.68-1.86-1.72-4.54-2.58-8.04-2.58ZM318.38,73.17c-.57,1.43-1.5,2.54-2.77,3.32-1.27.78-2.78,1.17-4.53,1.17s-3.12-.37-4.1-1.1c-.99-.73-1.48-1.73-1.48-3.01,0-2.61,1.94-3.91,5.82-3.91h7.06v3.53Z"/>
    <path class="cls-1" d="M342.29,55.37c-2,0-3.79.35-5.37,1.05-1.57.7-2.82,1.7-3.75,3.01v-3.82h-4.39v25.29h4.58v-13.03c0-2.7.72-4.78,2.15-6.23,1.43-1.45,3.39-2.17,5.87-2.17,2.2,0,3.88.62,5.06,1.86,1.18,1.24,1.77,3.09,1.77,5.54v14.03h4.58v-14.56c0-3.59-.95-6.32-2.84-8.18-1.89-1.86-4.45-2.79-7.66-2.79Z"/>
    <polygon class="cls-1" points="382.52 55.61 376.99 55.61 363.19 68.21 363.19 45.5 358.61 45.5 358.61 80.9 363.19 80.9 363.19 73.98 368.44 69.12 377.94 80.9 383.57 80.9 371.88 66.06 382.52 55.61"/>
    <path class="cls-1" d="M387.3,44.78c-.89,0-1.63.29-2.22.88-.59.59-.88,1.3-.88,2.12s.29,1.53.88,2.1c.59.57,1.33.86,2.22.86s1.63-.29,2.22-.88c.59-.59.88-1.31.88-2.17s-.29-1.52-.88-2.08c-.59-.56-1.33-.84-2.22-.84Z"/>
    <rect class="cls-1" x="385.01" y="55.61" width="4.58" height="25.29"/>
    <path class="cls-1" d="M416.81,58.17c-1.89-1.86-4.45-2.79-7.66-2.79-2,0-3.79.35-5.37,1.05-1.57.7-2.82,1.7-3.75,3.01v-3.82h-4.39v25.29h4.58v-13.03c0-2.7.72-4.78,2.15-6.23,1.43-1.45,3.39-2.17,5.87-2.17,2.2,0,3.88.62,5.06,1.86,1.18,1.24,1.77,3.09,1.77,5.54v14.03h4.58v-14.56c0-3.59-.95-6.32-2.84-8.18Z"/>
    <path class="cls-1" d="M296.86,65.73c1.27-1.81,1.91-4.01,1.91-6.59,0-3.63-1.24-6.47-3.72-8.54-2.48-2.07-5.89-3.1-10.21-3.1h-11.76l2.49,4.15h9.13c3.02,0,5.33.65,6.92,1.93,1.59,1.29,2.39,3.14,2.39,5.56s-.8,4.28-2.39,5.58c-1.59,1.3-3.9,1.96-6.92,1.96h-.12l2.36,3.96,7.21,10.26h5.2l-7.92-11.21c2.35-.83,4.17-2.15,5.44-3.96Z"/>
  </g>
  <g>
    <path class="cls-1" d="M63.55,57.45c1.63-.15,3.12-.51,4.47-1.08,1.36-.57,2.45-1.44,3.3-2.62s1.26-2.81,1.26-4.92c0-1.86-.39-3.37-1.17-4.51-.78-1.14-1.81-2-3.07-2.57-1.26-.57-2.66-.95-4.2-1.13-1.54-.18-3.03-.27-4.47-.27h-9.84v17.34h8.85c1.63,0,3.25-.07,4.88-.23ZM56.19,46.71h3.47c1.19,0,2.44.08,3.72.23.88.1,1.66.31,2.32.61.17.08.29.16.4.31.03.09.1.39.1.98,0,.77-.09,1.16-.13,1.29-.12.15-.27.27-.53.38-.75.32-1.61.52-2.58.61-1.42.13-2.86.2-4.29.2h-2.48v-4.6Z"/>
    <path class="cls-1" d="M62.55,0C45.52,0,30.09,6.81,18.81,17.86h9.8c9.65-7.31,21.56-11.49,33.94-11.49,30.98,0,56.18,25.2,56.18,56.18,0,3.21-.28,6.39-.81,9.52h6.44c.48-3.11.74-6.28.74-9.52C125.11,28.01,97.1,0,62.55,0Z"/>
    <path class="cls-1" d="M6.37,62.55c0-3.2.27-6.36.81-9.48H.73c-.47,3.09-.73,6.26-.73,9.48,0,20.77,10.13,39.16,25.71,50.54v-8.1c-12.09-10.48-19.34-25.82-19.34-42.44Z"/>
    <path class="cls-1" d="M38.44,40.34H4.07c-.79,2.07-1.45,4.2-2.02,6.37h30.02v63.06s0,0,0,0v7.41c2.06,1.15,4.18,2.19,6.37,3.11v-25.77h0v-54.18Z"/>
    <path class="cls-1" d="M62.55,118.74v6.37c17.03,0,32.47-6.81,43.74-17.86h-9.8c-9.65,7.31-21.56,11.49-33.94,11.49Z"/>
    <path class="cls-1" d="M104.37,78.4h-12.52l3.83,6.37h25.35c.79-2.07,1.45-4.2,2.02-6.37h-18.68Z"/>
    <path class="cls-1" d="M88.14,100.89h0s9.81,0,9.81,0l-3.83-6.37h0l-5.87-9.75h0l-3.83-6.37h0l-.89-1.47h0s-4.27-7.1-4.27-7.1c2.45-1.32,4.56-3.07,6.33-5.22,3.5-4.29,5.28-9.56,5.28-15.68,0-4.7-.95-8.76-2.81-12.07-1.85-3.28-4.37-5.93-7.51-7.88-2.87-1.78-6.15-3.05-9.74-3.77-3.26-.65-6.67-.98-10.15-.98H13.14c-1.58,2.03-3.03,4.15-4.35,6.37h51.87c3.07,0,6.03.29,8.9.86,2.86.57,5.4,1.55,7.63,2.93,2.23,1.39,4,3.25,5.33,5.6,1.32,2.35,1.99,5.33,1.99,8.94,0,4.64-1.28,8.52-3.84,11.65-2.56,3.13-6.22,5.03-10.97,5.69l8.38,13.95h0s.45.75.45.75l2.28,3.8h0l5.87,9.75h-.02,0s-13.72,0-13.72,0l-14.81-27.09h-8.31v56.38c2.09.43,4.21.76,6.37.98v-47.62l12.97,23.72h18.98Z"/>
    <path class="cls-1" d="M105.39,100.89h6.58c1.58-2.03,3.03-4.15,4.35-6.37h-14.77l3.83,6.37Z"/>
  </g>
  <path class="cls-1" d="M109.15,107.57h2.82v.35h-1.19v2.84h-.42v-2.84h-1.2v-.35ZM115.7,110.76v-2.46s-1.32,2.07-1.32,2.07h-.19l-1.32-2.02v2.42h-.41v-3.19h.35l1.48,2.31,1.47-2.31h.34v3.19s-.39,0-.39,0Z"/>
</svg>