<?xml version="1.0" encoding="UTF-8"?>
<svg id="Layer_1" xmlns="http://www.w3.org/2000/svg" version="1.1" viewBox="0 0 100 100">
  <!-- Generator: Adobe Illustrator 29.2.1, SVG Export Plug-In . SVG Version: 2.1.0 Build 116)  -->
  <defs>
    <style>
      .st0 {
        fill: #29abe2;
      }

      .st1 {
        fill: #00ffe5;
      }
    </style>
  </defs>
  <path class="st1" d="M49.9.5C22.6.5.4,22.7.4,50s22.2,49.5,49.5,49.5,49.5-22.2,49.5-49.5S77.3.5,49.9.5ZM49.9,77c-14.9,0-26.9-12.1-26.9-26.9s12.1-26.9,26.9-26.9,26.9,12.1,26.9,26.9-12.1,26.9-26.9,26.9Z"/>
  <path class="st0" d="M40.4,31.1c-10.7,0-19.4,8.7-19.4,19.4s8.7,19.4,19.4,19.4,19.4-8.7,19.4-19.4-8.7-19.4-19.4-19.4ZM40.4,61.1c-5.8,0-10.6-4.7-10.6-10.6s4.7-10.6,10.6-10.6,10.6,4.7,10.6,10.6-4.7,10.6-10.6,10.6Z"/>
</svg>